<svg height="512" viewBox="0 0 60 60" width="512" xmlns="http://www.w3.org/2000/svg"><g id="Page-1" fill="none" fill-rule="evenodd"><g id="032---History" fill="rgb(0,0,0)" fill-rule="nonzero"><path id="Shape" d="m52 27.044v-20.044c-.0044086-3.86416566-3.1358343-6.99559136-7-7h-38c-3.86416566.00440864-6.99559136 3.13583434-7 7v38c.00440864 3.8641657 3.13583434 6.9955914 7 7h20.044c4.0424204 6.0525683 11.3331081 9.0736257 18.4717274 7.654168 7.1386194-1.4194577 12.7189829-6.9998212 14.1384406-14.1384406 1.4194577-7.1386193-1.6015997-14.429307-7.654168-18.4717274zm-45 22.956c-2.76005315-.0033061-4.99669388-2.2399468-5-5v-38c.00330612-2.76005315 2.23994685-4.99669388 5-5h38c2.7600532.00330612 4.9966939 2.23994685 5 5v18.9c-1.5847554-.7902914-3.2783085-1.340317-5.025-1.632.006-.09.025-.176.025-.267 0-2.209139-1.790861-4-4-4h-18c-2.209139 0-4 1.790861-4 4s1.790861 4 4 4h3c.5522847 0 1-.4477153 1-1s-.4477153-1-1-1h-3c-1.1045695 0-2-.8954305-2-2s.8954305-2 2-2h18c1.1045695 0 2 .8954305 2 2 0 .017 0 .033-.005.05-.331-.018-.659-.05-.995-.05-5.5674311.0040693-10.818262 2.5895938-14.216 7h-4.784c-2.209139 0-4 1.790861-4 4s1.790861 4 4 4h1.271c-.666559 3.7459419-.0947094 7.6070673 1.629 10.999zm17.721-13h-1.721c-1.1045695 0-2-.8954305-2-2s.8954305-2 2-2h3.435c-.7318869 1.2586629-1.3074728 2.6019205-1.714 4zm17.279 21c-8.836556 0-16-7.163444-16-16s7.163444-16 16-16 16 7.163444 16 16c-.0104696 8.8322157-7.1677843 15.9895304-16 16z"/><path id="Shape" d="m42 49c-3.8659932 0-7-3.1340068-7-7s3.1340068-7 7-7 7 3.1340068 7 7c0 .5522847.4477153 1 1 1s1-.4477153 1-1c0-4.9705627-4.0294373-9-9-9s-9 4.0294373-9 9 4.0294373 9 9 9c.5522847 0 1-.4477153 1-1s-.4477153-1-1-1z"/><path id="Shape" d="m45.768 40.36c-.3574883-.4086317-.9757262-.4573621-1.39282-.109784-.4170937.3475782-.4806478.9644685-.14318 1.389784l5 6c.1899952.2278341.4713411.3595502.768.3595502s.5780048-.1317161.768-.3595502l5-6c.2390052-.2731981.3111994-.6544583.1886229-.9961244-.1225766-.341666-.4206735-.5900801-.7788424-.6490353-.3581689-.0589551-.7201604.0808074-.9457805.3651597l-4.232 5.078z"/><path id="Shape" d="m11 9c-2.209139 0-4 1.790861-4 4s1.790861 4 4 4 4-1.790861 4-4c0-1.060866-.4214274-2.0782816-1.1715729-2.8284271-.7501455-.75014554-1.7675611-1.1715729-2.8284271-1.1715729zm0 6c-1.1045695 0-2-.8954305-2-2s.8954305-2 2-2 2 .8954305 2 2-.8954305 2-2 2z"/><path id="Shape" d="m23 17h13c.5522847 0 1-.4477153 1-1s-.4477153-1-1-1h-13c-1.1045695 0-2-.8954305-2-2s.8954305-2 2-2h18c1.1045695 0 2 .8954305 2 2s-.8954305 2-2 2c-.5522847 0-1 .4477153-1 1s.4477153 1 1 1c2.209139 0 4-1.790861 4-4s-1.790861-4-4-4h-18c-2.209139 0-4 1.790861-4 4s1.790861 4 4 4z"/><path id="Shape" d="m11 20c-2.209139 0-4 1.790861-4 4s1.790861 4 4 4 4-1.790861 4-4-1.790861-4-4-4zm0 6c-1.1045695 0-2-.8954305-2-2s.8954305-2 2-2 2 .8954305 2 2-.8954305 2-2 2z"/><path id="Shape" d="m11 31c-2.209139 0-4 1.790861-4 4s1.790861 4 4 4 4-1.790861 4-4-1.790861-4-4-4zm0 6c-1.1045695 0-2-.8954305-2-2s.8954305-2 2-2 2 .8954305 2 2-.8954305 2-2 2z"/></g></g></svg>